<svg xmlns="http://www.w3.org/2000/svg" viewBox="0 0 213.11 446.6"><defs><style>.cls-1{fill:#e6cba2;}.cls-2{fill:#7a4a51;}.cls-3{fill:#755d51;}.cls-4{fill:#3d3d41;}.cls-5{fill:#333335;}.cls-6{fill:#85927d;}.cls-7{fill:#7a876f;}.cls-8{fill:#697761;}.cls-9{fill:#75846b;}.cls-10{fill:#876f63;}.cls-11{fill:#f0d6d6;}.cls-12{fill:#ddbfbf;}.cls-13{fill:#fff;}.cls-14{fill:#6b5b4d;}.cls-15{fill:#242022;}.cls-16{fill:#5a5c61;}.cls-17{fill:#85927e;}.cls-18{fill:#000001;}.cls-19{fill:#2c2c2d;}.cls-20{fill:#252526;}.cls-21{fill:#8c7367;}.cls-22{fill:#7c4950;}.cls-23{fill:#606265;}.cls-24{fill:#86917d;}.cls-25{fill:#604c43;}</style></defs><title>fond2Plan de travail 2</title><g id="Calque_4" data-name="Calque 4"><rect class="cls-1" x="16.83" y="36.44" width="15" height="22.67"/><ellipse class="cls-2" cx="24.26" cy="45.71" rx="1.5" ry="6.83"/><ellipse class="cls-3" cx="19.79" cy="93.09" rx="4.22" ry="5.23"/><path class="cls-4" d="M24,59.11l-.1,16.33L24,90.09s-6.42-.56-8.44.7-2.58-1.4-2.16-2.51a131,131,0,0,0,2.16-13.16c-.07-.94-2.29-15.31-2.29-15.31Z"/><path class="cls-5" d="M18.16,75.92a2.62,2.62,0,0,1-2.33-.84l.84-.54c.45.7,3.08.28,4.65,0a16.67,16.67,0,0,1,2-.26l0,1a16.46,16.46,0,0,0-1.87.24A22.18,22.18,0,0,1,18.16,75.92Z"/><ellipse class="cls-3" cx="28.17" cy="93.09" rx="4.22" ry="5.23"/><path class="cls-4" d="M24,59.11l.1,16.33L24,90.09s6.42-.56,8.44.7,2.58-1.4,2.16-2.51a131,131,0,0,1-2.16-13.16c.07-.94,2.29-15.31,2.29-15.31Z"/><path class="cls-5" d="M29.8,75.92a2.62,2.62,0,0,0,2.33-.84l-.84-.54c-.45.7-3.08.28-4.65,0a16.67,16.67,0,0,0-2-.26l0,1a16.34,16.34,0,0,1,1.86.24A22.33,22.33,0,0,0,29.8,75.92Z"/><path class="cls-6" d="M39.8,35.15c0,2-3.9,6.6-3.53,9.49S37.48,58,38.78,60.17s2.32,4.93,1.77,6.14-3.42,3-4.32,3.07-6.1,2.14-7.59,1.4a3.51,3.51,0,0,1-2.05-2.52c-.09-.65-2.69-12.93-2.14-15.72s.65-9.39,2.61-11.07a70.17,70.17,0,0,0,7-8.28C34.41,32.54,39.8,34.22,39.8,35.15Z"/><path class="cls-7" d="M39.43,34.5c-2.37,2.79-3.26,8.28-3.26,10.09s2.17,7.95,2.17,7.95-8.58,4.19-8.44,6,1,3.63,2.23,3.77S44.69,57.57,45,53.52s-.7-14.09-1.54-15.35A26.19,26.19,0,0,0,39.43,34.5Z"/><path class="cls-8" d="M33.85,33.19c1.12-.09,5.3.66,5.58,1.31s2.23,1.21,2.23,2.23l-7.81.46s4.51,3.73,4.65,5.12c.09.93-3.44,1.3-3.44,1.3s-6,1-7.07,3.35c-1.2,2.5-2.27,5-2.18,7.47.12,3.14,1.62,13,3.76,13.93s1.76,2.2,1.21,2.46c-.8.37-3.78.12-3.78.12s-2.64-12.26-2.73-14.86.35-11.24,2.24-13.93S33.85,33.19,33.85,33.19Z"/><rect class="cls-9" x="30.13" y="56.94" width="2.11" height="7.12" transform="translate(91.91 91.24) rotate(144.12)"/><path class="cls-6" d="M8.9,35.19c0,2,3.91,6.6,3.54,9.49S11.23,58.07,9.93,60.21,7.6,65.14,8.16,66.35s3.42,3,4.31,3.07,6.11,2.14,7.6,1.4a3.47,3.47,0,0,0,2-2.52c.1-.65,2.7-12.93,2.14-15.72s-.65-9.39-2.6-11.07a69.07,69.07,0,0,1-7-8.27C14.3,32.58,8.9,34.26,8.9,35.19Z"/><path class="cls-7" d="M9.28,34.54c2.37,2.79,3.25,8.28,3.25,10.09s-2.16,7.95-2.16,7.95,8.58,4.19,8.44,6-1,3.63-2.23,3.77S4,57.61,3.74,53.56s.7-14.09,1.54-15.35A26.26,26.26,0,0,1,9.28,34.54Z"/><path class="cls-8" d="M14.86,33.24c-1.12-.1-5.31.65-5.58,1.3S7,35.75,7,36.77l7.82.47S10.34,41,10.21,42.35c-.1.93,3.44,1.3,3.44,1.3s6,1,7.07,3.35c1.2,2.5,2.27,5,2.18,7.47-.12,3.14-1.62,13-3.76,13.93s-1.77,2.2-1.22,2.46c.8.37,3.79.12,3.79.12s2.64-12.26,2.73-14.86-.36-11.24-2.24-13.93S14.86,33.24,14.86,33.24Z"/><rect class="cls-9" x="16.46" y="56.98" width="2.11" height="7.12" transform="translate(38.81 1.22) rotate(35.88)"/><rect class="cls-10" x="12.67" y="19.54" width="23.34" height="5.76"/><ellipse class="cls-11" cx="24.26" cy="26.6" rx="11.12" ry="13.95"/><ellipse class="cls-11" cx="11.76" cy="26.6" rx="1.85" ry="2.84" transform="matrix(0.87, -0.5, 0.5, 0.87, -11.73, 9.44)"/><ellipse class="cls-11" cx="36.67" cy="26.6" rx="2.84" ry="1.85" transform="translate(-3.02 48.45) rotate(-64.8)"/><ellipse class="cls-12" cx="24.26" cy="28.56" rx="2.51" ry="3.35"/><path d="M14.53,33.58a5.51,5.51,0,0,0,4.74-.84c.84-.84.73-1.46,2.79-1.53a1.89,1.89,0,0,1,2.06,2.59c-.49,1.05-2.05,1.93-4,2.29C17,36.65,14.53,33.58,14.53,33.58Z"/><path d="M34.18,33.58a5.5,5.5,0,0,1-4.74-.84c-.84-.84-.74-1.46-2.79-1.53a1.89,1.89,0,0,0-2.06,2.59c.49,1.05,2,1.93,4,2.29C31.67,36.65,34.18,33.58,34.18,33.58Z"/><path class="cls-13" d="M28.13,21.84c-1.39,0-2.51,1.5-2.51,3.35,0,.13,0,.25,0,.38h5c0-.13,0-.25,0-.38C30.64,23.34,29.52,21.84,28.13,21.84Z"/><path class="cls-13" d="M19.79,21.67c-1.39,0-2.51,1.49-2.51,3.34,0,.13,0,.26,0,.39h5a2.56,2.56,0,0,0,0-.39C22.3,23.16,21.18,21.67,19.79,21.67Z"/><path d="M19.39,28a4.46,4.46,0,1,1,4.46-4.46A4.46,4.46,0,0,1,19.39,28Zm0-8.16a3.71,3.71,0,1,0,3.71,3.7A3.71,3.71,0,0,0,19.39,19.83Z"/><circle cx="14.53" cy="22.62" r="1"/><circle cx="13.13" cy="23.71" r="0.75"/><circle class="cls-14" cx="20.47" cy="24.46" r="1.65"/><circle class="cls-14" cx="27.66" cy="24.61" r="1.65"/><circle class="cls-15" cx="20.47" cy="24.46" r="1.22"/><circle class="cls-15" cx="27.66" cy="24.61" r="1.22"/><ellipse class="cls-16" cx="24.26" cy="17.53" rx="13.64" ry="4.88"/><path class="cls-16" d="M34.62,15.63s-3-14-4-14.8a2.41,2.41,0,0,0-3-.52,6.49,6.49,0,0,0-2,1.36,2.33,2.33,0,0,1-2,.48C23,2,22.56,1,21.26.47a3.77,3.77,0,0,0-4,.83c-.77.78-3.22,14.79-3.22,14.79"/><path class="cls-17" d="M24.06,16.09c2,0,9.63-3.38,9.86-3.66s.52,3.49.52,3.49-7.06,3.85-10.18,4-10.2-3.86-10.2-3.86l.62-3.44S22.3,16.09,24.06,16.09Z"/><path class="cls-18" d="M23,19.44a4.06,4.06,0,0,0-3.91-1.86c-2,.28-6.23,1.77-7.53,3.16s3.25-2.64,5.72-1.6,1.53,1.14,3,1.32A3.64,3.64,0,0,0,23,19.44Z"/><path class="cls-18" d="M25.27,19.44a4.06,4.06,0,0,1,3.91-1.86c2.05.28,6.23,1.77,7.53,3.16S33.46,18.1,31,19.14s-1.53,1.14-3,1.32A3.64,3.64,0,0,1,25.27,19.44Z"/><rect class="cls-1" x="72.86" y="36.44" width="15" height="22.67"/><ellipse class="cls-2" cx="80.29" cy="45.71" rx="1.5" ry="6.83"/><ellipse class="cls-3" cx="75.82" cy="93.09" rx="4.22" ry="5.23"/><path class="cls-4" d="M80.05,59.11l-.11,16.33.11,14.65s-6.43-.56-8.45.7-2.58-1.4-2.16-2.51A131,131,0,0,0,71.6,75.12c-.07-.94-2.29-15.31-2.29-15.31Z"/><path class="cls-5" d="M74.19,75.92a2.62,2.62,0,0,1-2.33-.84l.84-.54c.45.7,3.08.28,4.65,0a16.92,16.92,0,0,1,2-.26l0,1a16.46,16.46,0,0,0-1.87.24A22,22,0,0,1,74.19,75.92Z"/><ellipse class="cls-3" cx="84.41" cy="81.87" rx="4.22" ry="5.23"/><path class="cls-19" d="M80,59.11l.11,16.33,0,5.49s2.32,1.37,7.81.56c.85-.12,2.43-1.3,2-2.42s-1.51-3-1.45-3.95,2.3-15.31,2.3-15.31Z"/><path class="cls-20" d="M86.34,78.25a2.62,2.62,0,0,0,2.33-.84l-.84-.54c-.45.7-3.08.28-4.65,0a16.33,16.33,0,0,0-2-.25l0,1a16.46,16.46,0,0,1,1.87.24A22,22,0,0,0,86.34,78.25Z"/><path class="cls-6" d="M95.83,35.15c0,2-3.9,6.6-3.53,9.49S93.51,58,94.81,60.17s2.33,4.93,1.77,6.14-3.42,3-4.32,3.07-6.1,2.14-7.59,1.4a3.51,3.51,0,0,1-2-2.52c-.09-.65-2.69-12.93-2.13-15.72s.65-9.39,2.6-11.07a70.17,70.17,0,0,0,7-8.28C90.44,32.54,95.83,34.22,95.83,35.15Z"/><path class="cls-7" d="M95.46,34.5c-2.37,2.79-3.25,8.28-3.25,10.09s2.16,7.95,2.16,7.95-8.58,4.19-8.44,6,1,3.63,2.23,3.77,12.56-4.74,12.84-8.79-.7-14.09-1.54-15.35A26.19,26.19,0,0,0,95.46,34.5Z"/><path class="cls-8" d="M89.88,33.19c1.12-.09,5.3.66,5.58,1.31s2.23,1.21,2.23,2.23l-7.81.46s4.51,3.73,4.65,5.12c.09.93-3.44,1.3-3.44,1.3s-6,1-7.07,3.35c-1.2,2.5-2.27,5-2.18,7.47.12,3.14,1.62,13,3.76,13.93s1.76,2.2,1.22,2.46c-.81.37-3.79.12-3.79.12S80.39,58.68,80.3,56.08s.36-11.24,2.24-13.93S89.88,33.19,89.88,33.19Z"/><rect class="cls-9" x="86.16" y="56.94" width="2.11" height="7.12" transform="translate(193.34 58.41) rotate(144.12)"/><path class="cls-6" d="M64.94,35.19c0,2,3.9,6.6,3.53,9.49S67.26,58.07,66,60.21s-2.33,4.93-1.77,6.14,3.42,3,4.31,3.07,6.11,2.14,7.6,1.4a3.44,3.44,0,0,0,2-2.52c.1-.65,2.7-12.93,2.14-15.72s-.65-9.39-2.6-11.07a70,70,0,0,1-7-8.27C70.33,32.58,64.94,34.26,64.94,35.19Z"/><path class="cls-7" d="M65.31,34.54c2.37,2.79,3.25,8.28,3.25,10.09s-2.16,7.95-2.16,7.95,8.58,4.19,8.44,6-1,3.63-2.23,3.77-12.56-4.74-12.84-8.79.7-14.09,1.54-15.35A26.26,26.26,0,0,1,65.31,34.54Z"/><path class="cls-8" d="M70.89,33.24c-1.12-.1-5.3.65-5.58,1.3s-2.24,1.21-2.24,2.23l7.82.47S66.38,41,66.24,42.35c-.1.93,3.44,1.3,3.44,1.3s5.95,1,7.07,3.35c1.2,2.5,2.27,5,2.18,7.47-.12,3.14-1.62,13-3.76,13.93S73.41,70.6,74,70.86c.81.37,3.79.12,3.79.12s2.64-12.26,2.73-14.86-.36-11.24-2.24-13.93S70.89,33.24,70.89,33.24Z"/><rect class="cls-9" x="72.5" y="56.98" width="2.11" height="7.12" transform="translate(49.44 -31.62) rotate(35.88)"/><rect class="cls-10" x="68.7" y="19.54" width="23.34" height="5.76"/><ellipse class="cls-11" cx="80.29" cy="26.6" rx="11.12" ry="13.95"/><ellipse class="cls-11" cx="67.79" cy="26.6" rx="1.85" ry="2.84" transform="translate(-4.22 37.46) rotate(-30)"/><ellipse class="cls-11" cx="92.7" cy="26.6" rx="2.84" ry="1.85" transform="translate(29.16 99.15) rotate(-64.8)"/><ellipse class="cls-12" cx="80.29" cy="28.56" rx="2.51" ry="3.35"/><path d="M70.56,33.58a5.51,5.51,0,0,0,4.74-.84c.84-.84.73-1.46,2.79-1.53a1.89,1.89,0,0,1,2.06,2.59c-.49,1.05-2.05,1.93-4,2.29C73.07,36.65,70.56,33.58,70.56,33.58Z"/><path d="M90.21,33.58a5.51,5.51,0,0,1-4.74-.84c-.84-.84-.73-1.46-2.79-1.53a1.89,1.89,0,0,0-2.06,2.59c.49,1.05,2,1.93,4,2.29C87.7,36.65,90.21,33.58,90.21,33.58Z"/><path class="cls-13" d="M84.16,21.84c-1.39,0-2.51,1.5-2.51,3.35,0,.13,0,.25,0,.38h5c0-.13,0-.25,0-.38C86.67,23.34,85.55,21.84,84.16,21.84Z"/><path class="cls-13" d="M75.82,21.67c-1.38,0-2.51,1.49-2.51,3.34,0,.13,0,.26,0,.39h5c0-.13,0-.26,0-.39C78.34,23.16,77.21,21.67,75.82,21.67Z"/><path d="M75.42,28a4.46,4.46,0,1,1,4.46-4.46A4.46,4.46,0,0,1,75.42,28Zm0-8.16a3.71,3.71,0,1,0,3.71,3.7A3.7,3.7,0,0,0,75.42,19.83Z"/><circle cx="70.56" cy="22.62" r="1"/><circle cx="69.16" cy="23.71" r="0.75"/><circle class="cls-14" cx="76.5" cy="24.46" r="1.65"/><circle class="cls-14" cx="83.69" cy="24.61" r="1.65"/><circle class="cls-15" cx="76.5" cy="24.46" r="1.22"/><circle class="cls-15" cx="83.69" cy="24.61" r="1.22"/><ellipse class="cls-16" cx="80.29" cy="17.53" rx="13.64" ry="4.88"/><path class="cls-16" d="M90.65,15.63s-3-14-4-14.8a2.41,2.41,0,0,0-3-.52,6.61,6.61,0,0,0-2,1.36,2.33,2.33,0,0,1-2,.48C79,2,78.59,1,77.29.47a3.78,3.78,0,0,0-4,.83c-.76.78-3.22,14.79-3.22,14.79"/><path class="cls-17" d="M80.09,16.09c2,0,9.63-3.38,9.87-3.66s.51,3.49.51,3.49-7,3.85-10.18,4-10.2-3.86-10.2-3.86l.63-3.44S78.34,16.09,80.09,16.09Z"/><path class="cls-18" d="M79,19.44a4.06,4.06,0,0,0-3.91-1.86c-2,.28-6.23,1.77-7.53,3.16s3.26-2.64,5.72-1.6,1.54,1.14,3,1.32A3.64,3.64,0,0,0,79,19.44Z"/><path class="cls-18" d="M81.3,19.44a4.06,4.06,0,0,1,3.91-1.86c2.05.28,6.23,1.77,7.54,3.16S89.49,18.1,87,19.14s-1.53,1.14-3,1.32A3.64,3.64,0,0,1,81.3,19.44Z"/><rect class="cls-1" x="184.92" y="36.44" width="15" height="22.67"/><ellipse class="cls-2" cx="192.35" cy="45.71" rx="1.5" ry="6.83"/><ellipse class="cls-3" cx="196.26" cy="93.09" rx="4.22" ry="5.23"/><path class="cls-4" d="M192,59.11l.11,16.33L192,90.09s6.43-.56,8.45.7,2.58-1.4,2.16-2.51a131,131,0,0,1-2.16-13.16c.07-.94,2.29-15.31,2.29-15.31Z"/><path class="cls-5" d="M197.9,75.92a2.62,2.62,0,0,0,2.33-.84l-.84-.54c-.45.7-3.08.28-4.65,0a16.92,16.92,0,0,0-2-.26l0,1a16.46,16.46,0,0,1,1.87.24A22,22,0,0,0,197.9,75.92Z"/><ellipse class="cls-3" cx="187.68" cy="81.87" rx="4.22" ry="5.23"/><path class="cls-19" d="M192.11,59.11,192,75.44l0,5.49s-2.32,1.37-7.81.56c-.85-.12-2.43-1.3-2-2.42s1.52-3,1.45-3.95-2.29-15.31-2.29-15.31Z"/><path class="cls-20" d="M185.75,78.25a2.62,2.62,0,0,1-2.33-.84l.84-.54c.45.7,3.08.28,4.65,0a16.33,16.33,0,0,1,2-.25l0,1a16.34,16.34,0,0,0-1.86.24A22.33,22.33,0,0,1,185.75,78.25Z"/><path class="cls-6" d="M207.9,35.15c0,2-3.91,6.6-3.54,9.49s1.21,13.39,2.51,15.53,2.33,4.93,1.77,6.14-3.42,3-4.31,3.07-6.11,2.14-7.6,1.4a3.49,3.49,0,0,1-2-2.52c-.09-.65-2.7-12.93-2.14-15.72s.65-9.39,2.6-11.07a68.27,68.27,0,0,0,7-8.28C202.5,32.54,207.9,34.22,207.9,35.15Z"/><path class="cls-7" d="M207.53,34.5c-2.38,2.79-3.26,8.28-3.26,10.09s2.16,7.95,2.16,7.95-8.58,4.19-8.44,6,1,3.63,2.23,3.77,12.56-4.74,12.84-8.79-.7-14.09-1.53-15.35A26.19,26.19,0,0,0,207.53,34.5Z"/><path class="cls-8" d="M201.94,33.19c1.12-.09,5.31.66,5.59,1.31s2.23,1.21,2.23,2.23l-7.82.46s4.52,3.73,4.66,5.12c.09.93-3.45,1.3-3.45,1.3s-6,1-7.07,3.35c-1.2,2.5-2.27,5-2.18,7.47.12,3.14,1.63,13,3.76,13.93s1.77,2.2,1.22,2.46c-.8.37-3.78.12-3.78.12s-2.64-12.26-2.74-14.86.36-11.24,2.25-13.93S201.94,33.19,201.94,33.19Z"/><rect class="cls-9" x="198.23" y="56.94" width="2.11" height="7.12" transform="translate(396.21 -7.27) rotate(144.12)"/><path class="cls-6" d="M177,35.19c0,2,3.91,6.6,3.53,9.49S179.32,58.07,178,60.21s-2.32,4.93-1.77,6.14,3.42,3,4.32,3.07,6.1,2.14,7.59,1.4a3.49,3.49,0,0,0,2.05-2.52c.09-.65,2.7-12.93,2.14-15.72s-.65-9.39-2.61-11.07a69.8,69.8,0,0,1-7-8.27C182.39,32.58,177,34.26,177,35.19Z"/><path class="cls-7" d="M177.37,34.54c2.37,2.79,3.26,8.28,3.26,10.09s-2.17,7.95-2.17,7.95,8.58,4.19,8.45,6-1,3.63-2.24,3.77-12.56-4.74-12.83-8.79.69-14.09,1.53-15.35A26.75,26.75,0,0,1,177.37,34.54Z"/><path class="cls-8" d="M183,33.24c-1.11-.1-5.3.65-5.58,1.3s-2.23,1.21-2.23,2.23l7.81.47s-4.51,3.72-4.65,5.11c-.09.93,3.44,1.3,3.44,1.3s6,1,7.07,3.35c1.2,2.5,2.27,5,2.18,7.47-.12,3.14-1.62,13-3.76,13.93s-1.76,2.2-1.21,2.46c.8.37,3.78.12,3.78.12s2.64-12.26,2.73-14.86-.35-11.24-2.24-13.93S183,33.24,183,33.24Z"/><rect class="cls-9" x="184.56" y="56.98" width="2.11" height="7.12" transform="translate(70.7 -97.3) rotate(35.88)"/><rect class="cls-10" x="180.76" y="19.54" width="23.34" height="5.76"/><ellipse class="cls-11" cx="192.35" cy="26.6" rx="11.12" ry="13.95"/><ellipse class="cls-11" cx="179.85" cy="26.6" rx="1.85" ry="2.84" transform="translate(10.79 93.49) rotate(-30)"/><ellipse class="cls-11" cx="204.76" cy="26.6" rx="2.84" ry="1.85" transform="translate(93.5 200.55) rotate(-64.8)"/><ellipse class="cls-12" cx="192.35" cy="28.56" rx="2.51" ry="3.35"/><path d="M182.62,33.58a5.49,5.49,0,0,0,4.74-.84c.84-.84.74-1.46,2.79-1.53a1.89,1.89,0,0,1,2.06,2.59c-.49,1.05-2,1.93-4,2.29C185.13,36.65,182.62,33.58,182.62,33.58Z"/><path d="M202.28,33.58a5.52,5.52,0,0,1-4.75-.84c-.84-.84-.73-1.46-2.79-1.53a1.89,1.89,0,0,0-2.06,2.59c.49,1.05,2,1.93,4,2.29C199.76,36.65,202.28,33.58,202.28,33.58Z"/><path class="cls-13" d="M196.22,21.84c-1.38,0-2.51,1.5-2.51,3.35,0,.13,0,.25,0,.38h5c0-.13,0-.25,0-.38C198.74,23.34,197.61,21.84,196.22,21.84Z"/><path class="cls-13" d="M187.89,21.67c-1.39,0-2.51,1.49-2.51,3.34,0,.13,0,.26,0,.39h5c0-.13,0-.26,0-.39C190.4,23.16,189.27,21.67,187.89,21.67Z"/><path d="M187.49,28a4.46,4.46,0,1,1,4.45-4.46A4.46,4.46,0,0,1,187.49,28Zm0-8.16a3.71,3.71,0,1,0,3.7,3.7A3.71,3.71,0,0,0,187.49,19.83Z"/><circle cx="182.62" cy="22.62" r="1"/><circle cx="181.23" cy="23.71" r="0.75"/><circle class="cls-14" cx="188.56" cy="24.46" r="1.65"/><circle class="cls-14" cx="195.76" cy="24.61" r="1.65"/><circle class="cls-15" cx="188.56" cy="24.46" r="1.22"/><circle class="cls-15" cx="195.76" cy="24.61" r="1.22"/><ellipse class="cls-16" cx="192.35" cy="17.53" rx="13.64" ry="4.88"/><path class="cls-16" d="M202.71,15.63s-3-14-4-14.8a2.42,2.42,0,0,0-3-.52,6.55,6.55,0,0,0-2,1.36,2.31,2.31,0,0,1-2,.48C191.07,2,190.65,1,189.35.47a3.76,3.76,0,0,0-4,.83c-.77.78-3.23,14.79-3.23,14.79"/><path class="cls-17" d="M192.15,16.09c2,0,9.64-3.38,9.87-3.66s.51,3.49.51,3.49-7.05,3.85-10.18,4-10.2-3.86-10.2-3.86l.63-3.44S190.4,16.09,192.15,16.09Z"/><path class="cls-18" d="M191.08,19.44a4,4,0,0,0-3.9-1.86c-2.05.28-6.23,1.77-7.54,3.16s3.26-2.64,5.72-1.6,1.54,1.14,3,1.32A3.61,3.61,0,0,0,191.08,19.44Z"/><path class="cls-18" d="M193.37,19.44a4.05,4.05,0,0,1,3.9-1.86c2,.28,6.24,1.77,7.54,3.16s-3.26-2.64-5.72-1.6-1.54,1.14-3,1.32A3.63,3.63,0,0,1,193.37,19.44Z"/><rect class="cls-1" x="128.89" y="36.44" width="15" height="22.67"/><ellipse class="cls-2" cx="136.32" cy="45.71" rx="1.5" ry="6.83"/><ellipse class="cls-3" cx="131.86" cy="93.09" rx="4.22" ry="5.23"/><path class="cls-4" d="M136.08,59.11,136,75.44l.11,14.65s-6.43-.56-8.45.7-2.58-1.4-2.16-2.51a131,131,0,0,0,2.16-13.16c-.07-.94-2.29-15.31-2.29-15.31Z"/><path class="cls-5" d="M130.22,75.92a2.62,2.62,0,0,1-2.33-.84l.84-.54c.45.7,3.08.28,4.65,0a16.92,16.92,0,0,1,2-.26l0,1a16.46,16.46,0,0,0-1.87.24A22,22,0,0,1,130.22,75.92Z"/><ellipse class="cls-3" cx="140.23" cy="93.09" rx="4.22" ry="5.23"/><path class="cls-4" d="M136,59.11l.11,16.33L136,90.09s6.42-.56,8.45.7,2.58-1.4,2.16-2.51a131,131,0,0,1-2.16-13.16c.06-.94,2.29-15.31,2.29-15.31Z"/><path class="cls-5" d="M141.86,75.92a2.6,2.6,0,0,0,2.33-.84l-.84-.54c-.45.7-3.08.28-4.65,0a16.42,16.42,0,0,0-2-.26l0,1a16.75,16.75,0,0,1,1.87.24A22.05,22.05,0,0,0,141.86,75.92Z"/><path class="cls-6" d="M151.87,35.15c0,2-3.91,6.6-3.54,9.49s1.21,13.39,2.51,15.53,2.33,4.93,1.77,6.14-3.42,3-4.31,3.07-6.11,2.14-7.6,1.4a3.46,3.46,0,0,1-2-2.52c-.1-.65-2.7-12.93-2.14-15.72s.65-9.39,2.6-11.07a68.27,68.27,0,0,0,7-8.28C146.47,32.54,151.87,34.22,151.87,35.15Z"/><path class="cls-7" d="M151.49,34.5c-2.37,2.79-3.25,8.28-3.25,10.09s2.16,7.95,2.16,7.95-8.58,4.19-8.44,6,1,3.63,2.23,3.77,12.56-4.74,12.84-8.79-.7-14.09-1.54-15.35A25.73,25.73,0,0,0,151.49,34.5Z"/><path class="cls-8" d="M145.91,33.19c1.12-.09,5.3.66,5.58,1.31s2.24,1.21,2.24,2.23l-7.82.46s4.51,3.73,4.65,5.12c.1.93-3.44,1.3-3.44,1.3s-6,1-7.07,3.35c-1.2,2.5-2.27,5-2.18,7.47.12,3.14,1.62,13,3.76,13.93s1.76,2.2,1.22,2.46c-.8.37-3.79.12-3.79.12s-2.64-12.26-2.73-14.86.36-11.24,2.24-13.93S145.91,33.19,145.91,33.19Z"/><rect class="cls-9" x="142.19" y="56.94" width="2.11" height="7.12" transform="translate(294.78 25.57) rotate(144.12)"/><path class="cls-6" d="M121,35.19c0,2,3.9,6.6,3.53,9.49S123.29,58.07,122,60.21s-2.33,4.93-1.77,6.14,3.42,3,4.32,3.07,6.1,2.14,7.59,1.4a3.49,3.49,0,0,0,2.05-2.52c.09-.65,2.69-12.93,2.14-15.72s-.66-9.39-2.61-11.07a71,71,0,0,1-7-8.27C126.36,32.58,121,34.26,121,35.19Z"/><path class="cls-7" d="M121.34,34.54c2.37,2.79,3.25,8.28,3.25,10.09s-2.16,7.95-2.16,7.95,8.58,4.19,8.44,6-1,3.63-2.23,3.77-12.56-4.74-12.84-8.79.7-14.09,1.54-15.35A26.75,26.75,0,0,1,121.34,34.54Z"/><path class="cls-8" d="M126.92,33.24c-1.12-.1-5.3.65-5.58,1.3s-2.23,1.21-2.23,2.23l7.81.47s-4.51,3.72-4.65,5.11c-.09.93,3.44,1.3,3.44,1.3s6,1,7.07,3.35c1.2,2.5,2.27,5,2.18,7.47-.12,3.14-1.62,13-3.76,13.93s-1.76,2.2-1.22,2.46c.81.37,3.79.12,3.79.12s2.64-12.26,2.73-14.86-.35-11.24-2.24-13.93S126.92,33.24,126.92,33.24Z"/><rect class="cls-9" x="128.53" y="56.98" width="2.11" height="7.12" transform="translate(60.07 -64.46) rotate(35.88)"/><rect class="cls-10" x="124.73" y="19.54" width="23.34" height="5.76"/><ellipse class="cls-11" cx="136.32" cy="26.6" rx="11.12" ry="13.95"/><ellipse class="cls-11" cx="123.82" cy="26.6" rx="1.85" ry="2.84" transform="matrix(0.87, -0.5, 0.5, 0.87, 3.29, 65.47)"/><ellipse class="cls-11" cx="148.73" cy="26.6" rx="2.84" ry="1.85" transform="translate(61.33 149.85) rotate(-64.8)"/><ellipse class="cls-12" cx="136.32" cy="28.56" rx="2.51" ry="3.35"/><path d="M126.59,33.58a5.5,5.5,0,0,0,4.74-.84c.84-.84.74-1.46,2.79-1.53a1.89,1.89,0,0,1,2.06,2.59c-.49,1.05-2,1.93-4,2.29C129.1,36.65,126.59,33.58,126.59,33.58Z"/><path d="M146.24,33.58a5.51,5.51,0,0,1-4.74-.84c-.84-.84-.73-1.46-2.79-1.53a1.89,1.89,0,0,0-2.06,2.59c.49,1.05,2,1.93,4,2.29C143.73,36.65,146.24,33.58,146.24,33.58Z"/><path class="cls-13" d="M140.19,21.84c-1.38,0-2.51,1.5-2.51,3.35,0,.13,0,.25,0,.38h5a2.43,2.43,0,0,0,0-.38C142.7,23.34,141.58,21.84,140.19,21.84Z"/><path class="cls-13" d="M131.86,21.67c-1.39,0-2.52,1.49-2.52,3.34,0,.13,0,.26,0,.39h5c0-.13,0-.26,0-.39C134.37,23.16,133.24,21.67,131.86,21.67Z"/><path d="M131.45,28a4.46,4.46,0,1,1,4.46-4.46A4.46,4.46,0,0,1,131.45,28Zm0-8.16a3.71,3.71,0,1,0,3.71,3.7A3.7,3.7,0,0,0,131.45,19.83Z"/><circle cx="126.59" cy="22.62" r="1"/><circle cx="125.2" cy="23.71" r="0.75"/><circle class="cls-14" cx="132.53" cy="24.46" r="1.65"/><circle class="cls-14" cx="139.72" cy="24.61" r="1.65"/><circle class="cls-15" cx="132.53" cy="24.46" r="1.22"/><circle class="cls-15" cx="139.72" cy="24.61" r="1.22"/><ellipse class="cls-16" cx="136.32" cy="17.53" rx="13.64" ry="4.88"/><path class="cls-16" d="M146.68,15.63s-3-14-4-14.8a2.41,2.41,0,0,0-3-.52,6.61,6.61,0,0,0-2,1.36,2.32,2.32,0,0,1-2,.48C135,2,134.62,1,133.32.47a3.78,3.78,0,0,0-4,.83c-.76.78-3.22,14.79-3.22,14.79"/><path class="cls-17" d="M136.12,16.09c2,0,9.64-3.38,9.87-3.66s.51,3.49.51,3.49-7.05,3.85-10.18,4-10.2-3.86-10.2-3.86l.63-3.44S134.37,16.09,136.12,16.09Z"/><path class="cls-18" d="M135.05,19.44a4.05,4.05,0,0,0-3.9-1.86c-2.05.28-6.24,1.77-7.54,3.16s3.26-2.64,5.72-1.6,1.54,1.14,3,1.32A3.63,3.63,0,0,0,135.05,19.44Z"/><path class="cls-18" d="M137.34,19.44a4,4,0,0,1,3.9-1.86c2,.28,6.23,1.77,7.54,3.16s-3.26-2.64-5.72-1.6-1.54,1.14-3,1.32A3.61,3.61,0,0,1,137.34,19.44Z"/></g><g id="Calque_5" data-name="Calque 5"><rect class="cls-1" x="16.83" y="151.68" width="15" height="22.67"/><ellipse class="cls-3" cx="19.79" cy="208.34" rx="4.22" ry="5.23"/><path class="cls-4" d="M24,174.36l-.1,16.32.1,14.65s-6.42-.56-8.44.7-2.58-1.4-2.16-2.51a131,131,0,0,0,2.16-13.16c-.07-.93-2.29-15.31-2.29-15.31Z"/><path class="cls-5" d="M18.16,191.16a2.62,2.62,0,0,1-2.33-.84l.84-.54c.45.7,3.08.28,4.65,0a19,19,0,0,1,2-.26l0,1c-.44,0-1.13.13-1.87.24A22.18,22.18,0,0,1,18.16,191.16Z"/><ellipse class="cls-3" cx="28.17" cy="208.34" rx="4.22" ry="5.23"/><path class="cls-4" d="M24,174.36l.1,16.32L24,205.33s6.42-.56,8.44.7,2.58-1.4,2.16-2.51a131,131,0,0,1-2.16-13.16c.07-.93,2.29-15.31,2.29-15.31Z"/><path class="cls-5" d="M29.8,191.16a2.62,2.62,0,0,0,2.33-.84l-.84-.54c-.45.7-3.08.28-4.65,0a19,19,0,0,0-2-.26l0,1c.43,0,1.13.13,1.86.24A22.33,22.33,0,0,0,29.8,191.16Z"/><rect class="cls-10" x="12.67" y="133.69" width="23.34" height="6.85"/><ellipse class="cls-11" cx="24.26" cy="141.84" rx="11.12" ry="13.95"/><ellipse class="cls-11" cx="11.76" cy="141.84" rx="1.85" ry="2.84" transform="translate(-69.35 24.88) rotate(-30)"/><ellipse class="cls-11" cx="36.67" cy="141.84" rx="2.84" ry="1.85" transform="translate(-107.29 114.62) rotate(-64.8)"/><path class="cls-10" d="M13.13,140.57c1.07,1.77,1.32,3.84.93,4.7s.28,3.74,1.77,3.92,15.23.27,16.42.46,2.93-3.23,2.37-4.38c-1-2,.76-4.87.76-4.87l-.68-8.23-20.65.12Z"/><path class="cls-7" d="M39.43,149.74c-2.37,2.79-3.26,8.28-3.26,10.09s2.17,7.95,2.17,7.95-8.58,4.19-8.44,6,1,3.63,2.23,3.77,12.56-4.74,12.84-8.79-.7-14.09-1.54-15.35A26.75,26.75,0,0,0,39.43,149.74Z"/><path class="cls-7" d="M9.28,149.78c2.37,2.79,3.25,8.28,3.25,10.09s-2.16,8-2.16,8,8.58,4.18,8.44,6-1,3.62-2.23,3.76S4,172.85,3.74,168.8s.7-14.09,1.54-15.35A26.26,26.26,0,0,1,9.28,149.78Z"/><path class="cls-16" d="M34.81,131.74s-3.19-14.91-4.17-15.66a2.41,2.41,0,0,0-3-.53,6.49,6.49,0,0,0-2,1.36,2.27,2.27,0,0,1-2,.48c-.65-.19-1.07-1.12-2.37-1.67a3.77,3.77,0,0,0-4,.82c-.77.78-3.22,14.79-3.22,14.79"/><path class="cls-17" d="M24.06,131.33c2,0,9.66-3.16,9.9-3.44s.75,3.48.75,3.48-7.52-.22-10.65,0-10,0-10,0l.62-3.44S22.3,131.33,24.06,131.33Z"/><path class="cls-16" d="M37.89,134.22c0,2.69-6.3-1.44-13.83-1.44s-13.44,4.13-13.44,1.44,6.1-4.89,13.64-4.89S37.89,131.52,37.89,134.22Z"/><path class="cls-6" d="M38.78,175.41c-1.3-2.14-2.14-12.65-2.51-15.53s3.53-7.5,3.53-9.49c0-.93-5.39-2.61-5.76-1.95a189.89,189.89,0,0,0-19.37,0c-.37-.65-5.77,1-5.77,2,0,2,3.91,6.61,3.54,9.49s-1.21,13.39-2.51,15.53-2.33,4.93-1.77,6.14,3.42,3,4.31,3.07,6.11,2.14,7.6,1.4a3.47,3.47,0,0,0,2-2.51c.07-.47,1.54-7,2.15-11.61.69,4.65,2.27,11.1,2.33,11.57A3.49,3.49,0,0,0,28.64,186c1.49.74,6.7-1.31,7.59-1.4s3.76-1.86,4.32-3.07S40.08,177.55,38.78,175.41Z"/><rect class="cls-1" x="128.89" y="152.13" width="15" height="22.67"/><ellipse class="cls-3" cx="131.86" cy="208.79" rx="4.22" ry="5.23"/><path class="cls-4" d="M136.08,174.81,136,191.13l.11,14.65s-6.43-.56-8.45.7-2.58-1.39-2.16-2.51a131,131,0,0,0,2.16-13.16c-.07-.93-2.29-15.31-2.29-15.31Z"/><path class="cls-5" d="M130.22,191.61a2.64,2.64,0,0,1-2.33-.83l.84-.55c.45.7,3.08.28,4.65,0a19.35,19.35,0,0,1,2-.26l0,1c-.44,0-1.13.13-1.87.24A22,22,0,0,1,130.22,191.61Z"/><ellipse class="cls-3" cx="140.23" cy="208.79" rx="4.22" ry="5.23"/><path class="cls-4" d="M136,174.81l.11,16.32L136,205.78s6.42-.56,8.45.7,2.58-1.39,2.16-2.51a131,131,0,0,1-2.16-13.16c.06-.93,2.29-15.31,2.29-15.31Z"/><path class="cls-5" d="M141.86,191.61a2.62,2.62,0,0,0,2.33-.83l-.84-.55c-.45.7-3.08.28-4.65,0a18.69,18.69,0,0,0-2-.26l0,1c.43,0,1.13.13,1.87.24A22.05,22.05,0,0,0,141.86,191.61Z"/><rect class="cls-10" x="124.73" y="134.14" width="23.34" height="6.85"/><ellipse class="cls-11" cx="136.32" cy="142.29" rx="11.12" ry="13.95"/><ellipse class="cls-11" cx="123.82" cy="142.29" rx="1.85" ry="2.84" transform="translate(-54.56 80.97) rotate(-30)"/><ellipse class="cls-11" cx="148.73" cy="142.29" rx="2.84" ry="1.85" transform="translate(-43.35 216.28) rotate(-64.8)"/><path class="cls-10" d="M125.2,141c1.06,1.77,1.31,3.84.92,4.7s.28,3.74,1.77,3.92,15.24.27,16.42.46,2.93-3.23,2.37-4.38c-1-2,.76-4.87.76-4.87l-.67-8.23-20.66.12Z"/><path class="cls-7" d="M151.49,150.19c-2.37,2.79-3.25,8.28-3.25,10.09s2.16,8,2.16,8-8.58,4.18-8.44,6,1,3.62,2.23,3.76,12.56-4.74,12.84-8.79-.7-14.09-1.54-15.35A26.26,26.26,0,0,0,151.49,150.19Z"/><path class="cls-7" d="M121.34,150.23c2.37,2.79,3.25,8.28,3.25,10.09s-2.16,8-2.16,8,8.58,4.18,8.44,6-1,3.62-2.23,3.76-12.56-4.74-12.84-8.79.7-14.09,1.54-15.35A26.75,26.75,0,0,1,121.34,150.23Z"/><path class="cls-16" d="M146.87,132.19s-3.19-14.91-4.17-15.66a2.41,2.41,0,0,0-3-.53,6.61,6.61,0,0,0-2,1.36,2.26,2.26,0,0,1-2,.48c-.65-.18-1.07-1.12-2.37-1.67a3.77,3.77,0,0,0-4,.82c-.76.78-3.22,14.79-3.22,14.79"/><path class="cls-17" d="M136.12,131.78c2,0,9.67-3.16,9.9-3.44s.75,3.48.75,3.48-7.52-.22-10.65,0-10,0-10,0l.63-3.44S134.37,131.78,136.12,131.78Z"/><path class="cls-16" d="M150,134.67c0,2.7-6.3-1.44-13.84-1.44s-13.44,4.14-13.44,1.44,6.11-4.89,13.64-4.89S150,132,150,134.67Z"/><path class="cls-6" d="M150.84,175.86c-1.3-2.14-2.14-12.65-2.51-15.53s3.54-7.5,3.54-9.49c0-.93-5.4-2.6-5.77-2a189.89,189.89,0,0,0-19.37,0c-.37-.65-5.76,1-5.76,1.95,0,2,3.9,6.61,3.53,9.49s-1.21,13.39-2.51,15.53-2.33,4.93-1.77,6.14,3.42,3,4.32,3.07,6.1,2.14,7.59,1.4a3.49,3.49,0,0,0,2.05-2.51c.06-.47,1.53-7,2.14-11.61.69,4.65,2.27,11.1,2.34,11.57a3.45,3.45,0,0,0,2,2.51c1.49.74,6.7-1.3,7.6-1.4s3.75-1.86,4.31-3.07S152.14,178,150.84,175.86Z"/><rect class="cls-1" x="72.86" y="151.68" width="15" height="22.67"/><rect class="cls-10" x="68.7" y="133.69" width="23.34" height="6.85"/><ellipse class="cls-11" cx="80.29" cy="141.84" rx="11.12" ry="13.95"/><ellipse class="cls-11" cx="67.79" cy="141.84" rx="1.85" ry="2.84" transform="translate(-61.84 52.9) rotate(-30)"/><ellipse class="cls-11" cx="92.7" cy="141.84" rx="2.84" ry="1.85" transform="translate(-75.12 165.32) rotate(-64.8)"/><path class="cls-10" d="M69.16,140.57c1.07,1.77,1.32,3.84.93,4.7s.28,3.74,1.77,3.92,15.23.27,16.42.46,2.93-3.23,2.37-4.38c-1-2,.76-4.87.76-4.87l-.67-8.23-20.66.12Z"/><path class="cls-7" d="M95.46,149.74c-2.37,2.79-3.25,8.28-3.25,10.09s2.16,7.95,2.16,7.95-8.58,4.19-8.44,6,1,3.63,2.23,3.77,12.56-4.74,12.84-8.79-.7-14.09-1.54-15.35A26.75,26.75,0,0,0,95.46,149.74Z"/><path class="cls-7" d="M65.31,149.78c2.37,2.79,3.25,8.28,3.25,10.09s-2.16,8-2.16,8,8.58,4.18,8.44,6-1,3.62-2.23,3.76-12.56-4.74-12.84-8.79.7-14.09,1.54-15.35A26.26,26.26,0,0,1,65.31,149.78Z"/><path class="cls-16" d="M90.84,131.74s-3.19-14.91-4.17-15.66a2.41,2.41,0,0,0-3-.53,6.61,6.61,0,0,0-2,1.36,2.27,2.27,0,0,1-2,.48c-.65-.19-1.07-1.12-2.37-1.67a3.77,3.77,0,0,0-4,.82c-.76.78-3.22,14.79-3.22,14.79"/><path class="cls-17" d="M80.09,131.33c2,0,9.66-3.16,9.9-3.44s.75,3.48.75,3.48-7.52-.22-10.65,0-10,0-10,0l.63-3.44S78.34,131.33,80.09,131.33Z"/><path class="cls-16" d="M93.93,134.22c0,2.69-6.31-1.44-13.84-1.44s-13.44,4.13-13.44,1.44,6.11-4.89,13.64-4.89S93.93,131.52,93.93,134.22Z"/><ellipse class="cls-3" cx="75.79" cy="208.34" rx="4.22" ry="5.23"/><path class="cls-4" d="M80,174.36l-.11,16.32L80,205.33s-6.42-.56-8.44.7-2.58-1.4-2.16-2.51,2.23-12.23,2.16-13.16-2.29-15.31-2.29-15.31Z"/><path class="cls-5" d="M74.16,191.16a2.61,2.61,0,0,1-2.33-.84l.84-.54c.45.7,3.08.28,4.65,0a19,19,0,0,1,2-.26l0,1c-.43,0-1.13.13-1.86.24A22.33,22.33,0,0,1,74.16,191.16Z"/><ellipse class="cls-3" cx="84.37" cy="197.11" rx="4.22" ry="5.23"/><path class="cls-19" d="M80,174.36l.1,16.32,0,5.49s2.32,1.37,7.81.56c.85-.12,2.44-1.3,2-2.42s-1.52-3-1.45-3.95,2.29-15.31,2.29-15.31Z"/><path class="cls-20" d="M86.31,193.49a2.62,2.62,0,0,0,2.33-.84l-.84-.54c-.45.7-3.08.28-4.65,0a19.35,19.35,0,0,0-2-.26l0,1a16.75,16.75,0,0,1,1.87.24A22,22,0,0,0,86.31,193.49Z"/><path class="cls-6" d="M94.81,175.41c-1.3-2.14-2.14-12.65-2.51-15.53s3.53-7.5,3.53-9.49c0-.93-5.39-2.61-5.76-1.95a189.89,189.89,0,0,0-19.37,0c-.37-.65-5.76,1-5.76,2,0,2,3.9,6.61,3.53,9.49S67.26,173.31,66,175.45s-2.33,4.93-1.77,6.14,3.42,3,4.31,3.07,6.11,2.14,7.6,1.4a3.45,3.45,0,0,0,2-2.51c.07-.47,1.54-7,2.15-11.61.69,4.65,2.27,11.1,2.33,11.57a3.49,3.49,0,0,0,2,2.51c1.49.74,6.7-1.31,7.59-1.4s3.76-1.86,4.32-3.07S96.11,177.55,94.81,175.41Z"/><rect class="cls-1" x="184.92" y="151.68" width="15" height="22.67"/><rect class="cls-10" x="180.76" y="133.69" width="23.34" height="6.85"/><ellipse class="cls-11" cx="192.35" cy="141.84" rx="11.12" ry="13.95"/><ellipse class="cls-11" cx="179.85" cy="141.84" rx="1.85" ry="2.84" transform="translate(-46.83 108.93) rotate(-30)"/><ellipse class="cls-11" cx="204.76" cy="141.84" rx="2.84" ry="1.85" transform="translate(-10.77 266.72) rotate(-64.8)"/><path class="cls-10" d="M181.23,140.57c1.06,1.77,1.31,3.84.92,4.7s.29,3.74,1.78,3.92,15.23.27,16.42.46,2.92-3.23,2.36-4.38c-1-2,.76-4.87.76-4.87l-.67-8.23-20.66.12Z"/><path class="cls-7" d="M207.53,149.74c-2.38,2.79-3.26,8.28-3.26,10.09s2.16,7.95,2.16,7.95-8.58,4.19-8.44,6,1,3.63,2.23,3.77,12.56-4.74,12.84-8.79-.7-14.09-1.53-15.35A26.75,26.75,0,0,0,207.53,149.74Z"/><path class="cls-7" d="M177.37,149.78c2.37,2.79,3.26,8.28,3.26,10.09s-2.17,8-2.17,8,8.58,4.18,8.45,6-1,3.62-2.24,3.76-12.56-4.74-12.83-8.79.69-14.09,1.53-15.35A26.75,26.75,0,0,1,177.37,149.78Z"/><path class="cls-16" d="M202.9,131.74s-3.19-14.91-4.16-15.66a2.42,2.42,0,0,0-3-.53,6.55,6.55,0,0,0-2,1.36,2.25,2.25,0,0,1-2,.48c-.65-.19-1.07-1.12-2.37-1.67a3.75,3.75,0,0,0-4,.82c-.77.78-3.23,14.79-3.23,14.79"/><path class="cls-17" d="M192.15,131.33c2,0,9.67-3.16,9.9-3.44s.76,3.48.76,3.48-7.53-.22-10.66,0-10,0-10,0l.63-3.44S190.4,131.33,192.15,131.33Z"/><path class="cls-16" d="M206,134.22c0,2.69-6.3-1.44-13.84-1.44s-13.44,4.13-13.44,1.44,6.11-4.89,13.64-4.89S206,131.52,206,134.22Z"/><ellipse class="cls-3" cx="196.23" cy="208.34" rx="4.22" ry="5.23"/><path class="cls-4" d="M192,174.36l.11,16.32L192,205.33s6.42-.56,8.44.7,2.58-1.4,2.16-2.51-2.22-12.23-2.16-13.16,2.29-15.31,2.29-15.31Z"/><path class="cls-5" d="M197.86,191.16a2.61,2.61,0,0,0,2.33-.84l-.84-.54c-.45.7-3.08.28-4.65,0a19,19,0,0,0-2-.26l0,1c.43,0,1.13.13,1.86.24A22.33,22.33,0,0,0,197.86,191.16Z"/><ellipse class="cls-3" cx="187.65" cy="197.11" rx="4.22" ry="5.23"/><path class="cls-19" d="M192.08,174.36,192,190.68l0,5.49s-2.32,1.37-7.81.56c-.85-.12-2.44-1.3-2-2.42s1.52-3,1.45-3.95-2.29-15.31-2.29-15.31Z"/><path class="cls-20" d="M185.72,193.49a2.6,2.6,0,0,1-2.33-.84l.84-.54c.45.7,3.08.28,4.65,0a18.69,18.69,0,0,1,2-.26l0,1a16.75,16.75,0,0,0-1.87.24A22.05,22.05,0,0,1,185.72,193.49Z"/><path class="cls-6" d="M206.87,175.41c-1.3-2.14-2.14-12.65-2.51-15.53s3.54-7.5,3.54-9.49c0-.93-5.4-2.61-5.77-1.95a189.7,189.7,0,0,0-19.36,0c-.38-.65-5.77,1-5.77,2,0,2,3.91,6.61,3.53,9.49s-1.21,13.39-2.51,15.53-2.32,4.93-1.77,6.14,3.42,3,4.32,3.07,6.1,2.14,7.59,1.4a3.49,3.49,0,0,0,2.05-2.51c.06-.47,1.53-7,2.15-11.61.68,4.65,2.26,11.1,2.33,11.57a3.47,3.47,0,0,0,2,2.51c1.49.74,6.7-1.31,7.6-1.4s3.75-1.86,4.31-3.07S208.18,177.55,206.87,175.41Z"/></g><g id="Calque_6" data-name="Calque 6"><path class="cls-21" d="M206.33,365.83H191.12a14.38,14.38,0,0,1,1.4,3.42,18.3,18.3,0,0,1,0,2.09l1.53.28s5.75,6.14,6,6.35,4-.42,4-.42-1-2.23-.84-2.65,2.22-3.77,2.58-5.58A15.22,15.22,0,0,0,206.33,365.83Z"/><path class="cls-11" d="M177.89,370.91q.2-.78.42-1.53c-.24-.59-.12-2.2-.33-2.92-.28-.93-.7-4.49-.7-4.49l8.67-2.83h0a4.35,4.35,0,0,1,2.49-.16c3.38.82,5.12,6,4.43,12.13l2.92-.5,1.19,3.5,3.09,3.85,4-.42.35,1.68-9.86,4.13L193,381.3s-6.64,5.2-8.4,4.75h0a3.81,3.81,0,0,1-2.89.32C180,385.69,176,378.47,177.89,370.91Z"/><path d="M185.76,378.38a5.55,5.55,0,0,1-4.75-.83c-.83-.84-.73-1.47-2.79-1.54a1.88,1.88,0,0,0-2.05,2.6c.48,1,2,1.93,4,2.29C183.25,381.45,185.76,378.38,185.76,378.38Z"/><ellipse class="cls-11" cx="197.39" cy="371.54" rx="2.84" ry="1.85" transform="translate(-223.07 356.72) rotate(-60)"/><ellipse class="cls-11" cx="178.41" cy="372.67" rx="4.26" ry="3.1" transform="translate(-185.72 177.41) rotate(-36.22)"/><path class="cls-13" d="M182.54,367.07c1.39,0,2.51,1.49,2.51,3.34,0,.13,0,.26,0,.39h-5c0-.13,0-.26,0-.39C180,368.56,181.15,367.07,182.54,367.07Z"/><circle class="cls-14" cx="181.5" cy="370.29" r="1.65"/><circle class="cls-15" cx="181.5" cy="370.29" r="1.22"/><ellipse class="cls-22" cx="192.72" cy="384.05" rx="2.02" ry="1.22" transform="translate(-166.2 147.81) rotate(-30)"/><ellipse class="cls-22" cx="187.87" cy="389.06" rx="5.19" ry="1.81" transform="translate(-226.55 266.91) rotate(-47.8)"/><ellipse class="cls-23" cx="192.46" cy="363.8" rx="20.65" ry="4.92"/><path class="cls-23" d="M207.42,364.29s1.12-13.58-1.21-14.32-15-6.17-20.28-4.16-4.83,2.58-4.83,2.58-2.79,10.32-3,11.44S207.42,364.29,207.42,364.29Z"/><path class="cls-24" d="M207.61,361.5v2.7s-8.75,1.67-16,.65c-2.77-.39-12.93-3.79-13.49-4.53s.7-3.37.7-3.37,8.61,4.58,13.44,5C197.28,362.43,207.14,362.43,207.61,361.5Z"/><path class="cls-3" d="M204.31,432.46c0,.55,2.81,6,3.14,7.53.25,1.21,1.6,3.42-2.1,4.05s-20.72.28-20.72.28a4.89,4.89,0,0,1-1.39-3.21c-.1-2.17-.07-3.91,3-4.54s5.65-.14,6.35-1.11,1.67-2.59,1.67-2.59Z"/><path class="cls-23" d="M206.34,432.11c-.78.69-13.17,3.62-13.88,2.23s-8.28-23.09-6.76-26.86,11.69-1.84,11.69-1.84v12Z"/><path class="cls-6" d="M204.54,379.27a58.82,58.82,0,0,0,4.84,4.74,6.72,6.72,0,0,1,2.41,4.47,7.89,7.89,0,0,1-2.88,6.42,42.65,42.65,0,0,0-5.39,6.51s6.23,7.44,5.95,9.21a3.56,3.56,0,0,1-2.51,3c-1,.27-11.1,2.31-12.47,2.6s-4.37.56-5.21,0-6.14-14.79-5.49-17,1-9.31,5.12-11.91S199.7,379.08,204.54,379.27Z"/><path class="cls-7" d="M204.45,385.92c.06-.74-3.56-2.37-5.38-1.6s-5.86,5.3-5.09,7.11,4.74,8.23,4.74,8.23S193,402.6,193,403.5s1.37,4,3.39,4,13.47-5.65,13.26-8.58S204.38,386.76,204.45,385.92Z"/><path class="cls-8" d="M208.35,382.85c0-.7-.8-3.49-2-3.84-2.86-.81-14.07,3.61-18.86,9.51a15.62,15.62,0,0,0-3.73,11.17c0,2.09,3.59,15.65,5.54,16.51a5.25,5.25,0,0,0,3.58.25c.14-.56-1.18-2.83-2.16-4.92a82.49,82.49,0,0,1-3.49-7.82c-.51-1.94-1.3-3.42-1.11-5.09a9.39,9.39,0,0,1,3.14-5.86c3.79-3.42,13.32-2.65,14.79-3.49,1.3-.75-5.45-6-5.45-6Z"/><rect class="cls-9" x="193.01" y="402.08" width="2.11" height="7.12" transform="translate(589.03 620.58) rotate(144.12)"/><path class="cls-18" d="M178.44,365.47a4,4,0,0,1,3.9-1.86c2,.27,6.24,1.76,7.54,3.16s-3.26-2.64-5.72-1.6-1.54,1.13-3,1.32A3.63,3.63,0,0,1,178.44,365.47Z"/><path class="cls-21" d="M92.09,365.83H76.89a14.46,14.46,0,0,1,1.39,3.42,18.3,18.3,0,0,1,0,2.09l1.54.28s5.75,6.14,6,6.35,4-.42,4-.42-1-2.23-.84-2.65,2.22-3.77,2.59-5.58A15.24,15.24,0,0,0,92.09,365.83Z"/><path class="cls-11" d="M63.65,370.91c.13-.52.28-1,.43-1.53-.25-.59-.12-2.2-.34-2.92-.28-.93-.69-4.49-.69-4.49l8.67-2.83h0a4.38,4.38,0,0,1,2.5-.16c3.38.82,5.12,6,4.43,12.13l2.91-.5,1.2,3.5L85.84,378l4-.42.35,1.68-9.86,4.13L78.8,381.3s-6.65,5.2-8.41,4.75h0a3.79,3.79,0,0,1-2.88.32C65.79,385.69,61.8,378.47,63.65,370.91Z"/><path d="M71.52,378.38a5.54,5.54,0,0,1-4.74-.83c-.84-.84-.73-1.47-2.79-1.54a1.89,1.89,0,0,0-2.06,2.6c.49,1,2,1.93,4,2.29C69,381.45,71.52,378.38,71.52,378.38Z"/><ellipse class="cls-11" cx="83.16" cy="371.54" rx="2.84" ry="1.85" transform="matrix(0.5, -0.87, 0.87, 0.5, -280.19, 257.79)"/><ellipse class="cls-11" cx="64.17" cy="372.67" rx="4.26" ry="3.1" transform="translate(-207.79 109.91) rotate(-36.22)"/><path class="cls-13" d="M68.3,367.07c1.39,0,2.52,1.49,2.52,3.34,0,.13,0,.26,0,.39h-5c0-.13,0-.26,0-.39C65.79,368.56,66.92,367.07,68.3,367.07Z"/><circle class="cls-14" cx="67.26" cy="370.29" r="1.65"/><circle class="cls-15" cx="67.26" cy="370.29" r="1.22"/><ellipse class="cls-22" cx="78.49" cy="384.05" rx="2.02" ry="1.22" transform="translate(-181.51 90.7) rotate(-30)"/><ellipse class="cls-22" cx="73.64" cy="389.06" rx="5.19" ry="1.81" transform="translate(-264.05 182.28) rotate(-47.8)"/><ellipse class="cls-23" cx="78.22" cy="363.8" rx="20.65" ry="4.92"/><path class="cls-23" d="M93.19,364.29S94.3,350.71,92,350s-15-6.17-20.28-4.16-4.84,2.58-4.84,2.58-2.79,10.32-3,11.44S93.19,364.29,93.19,364.29Z"/><path class="cls-24" d="M93.37,361.5v2.7s-8.74,1.67-16,.65c-2.76-.39-12.93-3.79-13.49-4.53s.71-3.37.71-3.37,8.61,4.58,13.43,5C83.05,362.43,92.91,362.43,93.37,361.5Z"/><path class="cls-3" d="M90.07,432.46c0,.55,2.81,6,3.14,7.53.26,1.21,1.61,3.42-2.09,4.05s-20.72.28-20.72.28a4.92,4.92,0,0,1-1.4-3.21c-.1-2.17-.07-3.91,3-4.54s5.65-.14,6.35-1.11S80,432.87,80,432.87Z"/><path class="cls-23" d="M92.1,432.11c-.77.69-13.17,3.62-13.88,2.23S70,411.25,71.46,407.48s11.7-1.84,11.7-1.84v12Z"/><path class="cls-6" d="M90.3,379.27A58.82,58.82,0,0,0,95.14,384a6.69,6.69,0,0,1,2.42,4.47,7.92,7.92,0,0,1-2.88,6.42,42.32,42.32,0,0,0-5.4,6.51s6.23,7.44,6,9.21a3.53,3.53,0,0,1-2.51,3c-1,.27-11.1,2.31-12.46,2.6s-4.37.56-5.21,0-6.14-14.79-5.49-17,1-9.31,5.12-11.91S85.47,379.08,90.3,379.27Z"/><path class="cls-7" d="M90.21,385.92c.06-.74-3.56-2.37-5.37-1.6s-5.86,5.3-5.09,7.11,4.74,8.23,4.74,8.23-5.74,2.94-5.69,3.84,1.36,4,3.39,4,13.46-5.65,13.25-8.58S90.14,386.76,90.21,385.92Z"/><path class="cls-8" d="M94.12,382.85c0-.7-.8-3.49-2-3.84-2.86-.81-14.07,3.61-18.85,9.51a15.59,15.59,0,0,0-3.74,11.17c0,2.09,3.59,15.65,5.55,16.51a5.25,5.25,0,0,0,3.58.25c.14-.56-1.19-2.83-2.16-4.92A80,80,0,0,1,73,403.71c-.52-1.94-1.3-3.42-1.12-5.09A9.44,9.44,0,0,1,75,392.76c3.8-3.42,13.33-2.65,14.79-3.49,1.31-.75-5.45-6-5.45-6Z"/><rect class="cls-9" x="78.77" y="402.08" width="2.11" height="7.12" transform="translate(382.24 687.53) rotate(144.12)"/><path class="cls-18" d="M64.2,365.47a4,4,0,0,1,3.91-1.86c2,.27,6.23,1.76,7.53,3.16s-3.25-2.64-5.72-1.6-1.53,1.13-3,1.32A3.64,3.64,0,0,1,64.2,365.47Z"/><path class="cls-21" d="M152.47,365.83H137.26a14.38,14.38,0,0,1,1.4,3.42,18.3,18.3,0,0,1,0,2.09l1.53.28s5.75,6.14,6,6.35,4-.42,4-.42-1.05-2.23-.84-2.65,2.22-3.77,2.58-5.58A15.22,15.22,0,0,0,152.47,365.83Z"/><path class="cls-11" d="M124,370.91q.19-.78.42-1.53c-.24-.59-.12-2.2-.33-2.92-.28-.93-.7-4.49-.7-4.49l8.67-2.83h0a4.35,4.35,0,0,1,2.49-.16c3.38.82,5.12,6,4.43,12.13l2.92-.5,1.19,3.5,3.09,3.85,4-.42.35,1.68-9.86,4.13-1.56-2.06s-6.64,5.2-8.4,4.75h0a3.81,3.81,0,0,1-2.89.32C126.17,385.69,122.18,378.47,124,370.91Z"/><path d="M131.9,378.38a5.55,5.55,0,0,1-4.75-.83c-.83-.84-.73-1.47-2.79-1.54a1.88,1.88,0,0,0-2,2.6c.48,1,2,1.93,4,2.29C129.39,381.45,131.9,378.38,131.9,378.38Z"/><ellipse class="cls-11" cx="143.53" cy="371.54" rx="2.84" ry="1.85" transform="matrix(0.5, -0.87, 0.87, 0.5, -250, 310.07)"/><ellipse class="cls-11" cx="124.55" cy="372.67" rx="4.26" ry="3.1" transform="translate(-196.12 145.58) rotate(-36.22)"/><path class="cls-13" d="M128.68,367.07c1.39,0,2.51,1.49,2.51,3.34,0,.13,0,.26,0,.39h-5c0-.13,0-.26,0-.39C126.17,368.56,127.29,367.07,128.68,367.07Z"/><circle class="cls-14" cx="127.64" cy="370.29" r="1.65"/><circle class="cls-15" cx="127.64" cy="370.29" r="1.22"/><ellipse class="cls-22" cx="138.86" cy="384.05" rx="2.02" ry="1.22" transform="translate(-173.42 120.88) rotate(-30)"/><ellipse class="cls-22" cx="134.01" cy="389.06" rx="5.19" ry="1.81" transform="translate(-244.23 227.01) rotate(-47.8)"/><ellipse class="cls-23" cx="138.6" cy="363.8" rx="20.65" ry="4.92"/><path class="cls-23" d="M153.56,364.29s1.12-13.58-1.21-14.32-15-6.17-20.28-4.16-4.83,2.58-4.83,2.58-2.79,10.32-3,11.44S153.56,364.29,153.56,364.29Z"/><path class="cls-24" d="M153.75,361.5v2.7s-8.75,1.67-16,.65c-2.77-.39-12.93-3.79-13.49-4.53s.7-3.37.7-3.37,8.61,4.58,13.44,5C143.42,362.43,153.28,362.43,153.75,361.5Z"/><path class="cls-25" d="M150.45,432.46c0,.55,2.81,6,3.14,7.53.25,1.21,1.6,3.42-2.1,4.05s-20.72.28-20.72.28a4.89,4.89,0,0,1-1.39-3.21c-.1-2.17-.07-3.91,3-4.54s5.65-.14,6.35-1.11,1.67-2.59,1.67-2.59Z"/><path class="cls-19" d="M152.48,432.11c-.78.69-13.17,3.62-13.88,2.23s-8.28-23.09-6.76-26.86,11.69-1.84,11.69-1.84v12Z"/><path class="cls-3" d="M134.41,436.53c-.32.46-1.16,6.51-1.79,8-.49,1.13-.66,3.72-4,2.1s-17.08-11.73-17.08-11.73a4.86,4.86,0,0,1,.71-3.43c1.17-1.83,2.2-3.23,5.07-2s4.69,3.14,5.83,2.75,2.85-1.14,2.85-1.14Z"/><path class="cls-23" d="M136.27,437.42c-1,.12-12.85-4.64-12.62-6.19s6.56-23.63,10-25.83,10.61,5.24,10.61,5.24l-6.9,9.77Z"/><path class="cls-6" d="M150.68,379.27a58.82,58.82,0,0,0,4.84,4.74,6.72,6.72,0,0,1,2.41,4.47,7.89,7.89,0,0,1-2.88,6.42,42.65,42.65,0,0,0-5.39,6.51s6.23,7.44,6,9.21a3.56,3.56,0,0,1-2.51,3c-1,.27-11.1,2.31-12.47,2.6s-4.37.56-5.21,0-6.14-14.79-5.49-17,1-9.31,5.12-11.91S145.84,379.08,150.68,379.27Z"/><path class="cls-7" d="M150.59,385.92c.06-.74-3.56-2.37-5.38-1.6s-5.86,5.3-5.09,7.11,4.74,8.23,4.74,8.23-5.73,2.94-5.69,3.84,1.37,4,3.39,4,13.47-5.65,13.26-8.58S150.52,386.76,150.59,385.92Z"/><path class="cls-8" d="M154.49,382.85c0-.7-.8-3.49-2-3.84-2.86-.81-14.07,3.61-18.86,9.51a15.62,15.62,0,0,0-3.73,11.17c0,2.09,3.59,15.65,5.54,16.51a5.25,5.25,0,0,0,3.58.25c.14-.56-1.18-2.83-2.16-4.92a82.49,82.49,0,0,1-3.49-7.82c-.51-1.94-1.3-3.42-1.11-5.09a9.39,9.39,0,0,1,3.14-5.86c3.79-3.42,13.32-2.65,14.79-3.49,1.3-.75-5.45-6-5.45-6Z"/><rect class="cls-9" x="139.15" y="402.08" width="2.11" height="7.12" transform="translate(491.53 652.15) rotate(144.12)"/><path class="cls-18" d="M124.58,365.47a4,4,0,0,1,3.9-1.86c2.05.27,6.24,1.76,7.54,3.16s-3.26-2.64-5.72-1.6-1.54,1.13-3,1.32A3.63,3.63,0,0,1,124.58,365.47Z"/><path class="cls-21" d="M38.23,365.83H23a14.46,14.46,0,0,1,1.39,3.42,18.3,18.3,0,0,1,0,2.09l1.54.28s5.75,6.14,6,6.35,4-.42,4-.42-1-2.23-.84-2.65,2.22-3.77,2.59-5.58A15.24,15.24,0,0,0,38.23,365.83Z"/><path class="cls-11" d="M9.79,370.91c.13-.52.28-1,.43-1.53-.25-.59-.12-2.2-.34-2.92-.28-.93-.69-4.49-.69-4.49l8.67-2.83h0a4.38,4.38,0,0,1,2.5-.16c3.38.82,5.12,6,4.43,12.13l2.91-.5,1.2,3.5L32,378l4-.42.35,1.68-9.86,4.13-1.55-2.06s-6.65,5.2-8.41,4.75h0a3.79,3.79,0,0,1-2.88.32C11.93,385.69,7.94,378.47,9.79,370.91Z"/><path d="M17.66,378.38a5.54,5.54,0,0,1-4.74-.83c-.84-.84-.73-1.47-2.79-1.54a1.89,1.89,0,0,0-2.06,2.6c.49,1,2,1.93,4,2.29C15.15,381.45,17.66,378.38,17.66,378.38Z"/><ellipse class="cls-11" cx="29.3" cy="371.54" rx="2.84" ry="1.85" transform="translate(-307.12 211.14) rotate(-60)"/><ellipse class="cls-11" cx="10.31" cy="372.67" rx="4.26" ry="3.1" transform="translate(-218.19 78.09) rotate(-36.22)"/><path class="cls-13" d="M14.44,367.07c1.39,0,2.52,1.49,2.52,3.34,0,.13,0,.26,0,.39H12c0-.13,0-.26,0-.39C11.93,368.56,13.06,367.07,14.44,367.07Z"/><circle class="cls-14" cx="13.4" cy="370.29" r="1.65"/><circle class="cls-15" cx="13.4" cy="370.29" r="1.22"/><ellipse class="cls-22" cx="24.63" cy="384.05" rx="2.02" ry="1.22" transform="translate(-188.72 63.77) rotate(-30)"/><ellipse class="cls-22" cx="19.78" cy="389.06" rx="5.19" ry="1.81" transform="translate(-281.74 142.38) rotate(-47.8)"/><ellipse class="cls-23" cx="24.36" cy="363.8" rx="20.65" ry="4.92"/><path class="cls-23" d="M39.33,364.29s1.11-13.58-1.21-14.32-15-6.17-20.28-4.16S13,348.39,13,348.39s-2.79,10.32-3,11.44S39.33,364.29,39.33,364.29Z"/><path class="cls-24" d="M39.51,361.5v2.7s-8.74,1.67-16,.65c-2.76-.39-12.93-3.79-13.49-4.53s.71-3.37.71-3.37,8.61,4.58,13.43,5C29.19,362.43,39.05,362.43,39.51,361.5Z"/><path class="cls-25" d="M23.22,429c-.19.52.59,6.58.37,8.15-.18,1.23.33,3.77-3.36,3.09S.67,433.42.67,433.42a4.93,4.93,0,0,1-.21-3.49c.65-2.07,1.28-3.7,4.38-3.23s5.35,1.81,6.34,1.13S13.64,426,13.64,426Z"/><path class="cls-19" d="M23.49,433.18c-1,.12-12.85-4.64-12.62-6.19s6.57-23.64,10-25.84,10.61,5.25,10.61,5.25l-6.9,9.76Z"/><path class="cls-3" d="M36.21,432.46c0,.55,2.81,6,3.14,7.53.26,1.21,1.61,3.42-2.09,4.05s-20.72.28-20.72.28a4.92,4.92,0,0,1-1.4-3.21c-.1-2.17-.07-3.91,3-4.54s5.65-.14,6.35-1.11,1.67-2.59,1.67-2.59Z"/><path class="cls-23" d="M38.24,432.11c-.77.69-13.17,3.62-13.88,2.23s-8.27-23.09-6.76-26.86,11.7-1.84,11.7-1.84v12Z"/><path class="cls-6" d="M36.44,379.27A58.82,58.82,0,0,0,41.28,384a6.69,6.69,0,0,1,2.42,4.47,7.92,7.92,0,0,1-2.88,6.42,42.32,42.32,0,0,0-5.4,6.51s6.23,7.44,5.95,9.21a3.53,3.53,0,0,1-2.51,3c-1,.27-11.1,2.31-12.46,2.6s-4.37.56-5.21,0-6.14-14.79-5.49-17,1-9.31,5.12-11.91S31.61,379.08,36.44,379.27Z"/><path class="cls-7" d="M36.35,385.92c.06-.74-3.56-2.37-5.37-1.6s-5.86,5.3-5.09,7.11,4.74,8.23,4.74,8.23-5.74,2.94-5.69,3.84,1.36,4,3.39,4,13.46-5.65,13.25-8.58S36.28,386.76,36.35,385.92Z"/><path class="cls-8" d="M40.26,382.85c0-.7-.8-3.49-2-3.84-2.86-.81-14.07,3.61-18.85,9.51a15.59,15.59,0,0,0-3.74,11.17c0,2.09,3.59,15.65,5.55,16.51a5.25,5.25,0,0,0,3.58.25c.14-.56-1.19-2.83-2.16-4.92a80,80,0,0,1-3.49-7.82c-.52-1.94-1.3-3.42-1.12-5.09a9.44,9.44,0,0,1,3.14-5.86c3.8-3.42,13.33-2.65,14.79-3.49s-5.45-6-5.45-6Z"/><rect class="cls-9" x="24.91" y="402.08" width="2.11" height="7.12" transform="translate(284.74 719.1) rotate(144.12)"/><path class="cls-18" d="M10.34,365.47a4,4,0,0,1,3.91-1.86c2,.27,6.23,1.76,7.53,3.16s-3.25-2.64-5.72-1.6-1.53,1.13-3,1.32A3.64,3.64,0,0,1,10.34,365.47Z"/><path class="cls-21" d="M10.49,250.59H25.7A14.1,14.1,0,0,0,24.31,254a18.44,18.44,0,0,0,0,2.1l-1.54.28s-5.75,6.14-6,6.35a24,24,0,0,1-4-.42s1-2.24.84-2.65-2.22-3.77-2.58-5.59A15,15,0,0,1,10.49,250.59Z"/><path class="cls-11" d="M38.93,255.67c-.12-.53-.27-1-.42-1.54.24-.58.12-2.2.33-2.92.28-.93.7-4.48.7-4.48l-8.67-2.83h0a4.44,4.44,0,0,0-2.49-.17c-3.38.83-5.12,6-4.43,12.14l-2.92-.5-1.19,3.5-3.09,3.85-4-.42L12.37,264l9.87,4.13,1.55-2.06s6.64,5.2,8.4,4.75h0a3.86,3.86,0,0,0,2.89.32C36.79,270.45,40.79,263.23,38.93,255.67Z"/><path d="M31.06,263.14a5.55,5.55,0,0,0,4.75-.83c.83-.84.73-1.47,2.79-1.54a1.89,1.89,0,0,1,2.06,2.6c-.49,1-2,1.93-4,2.28C33.57,266.21,31.06,263.14,31.06,263.14Z"/><ellipse class="cls-11" cx="19.43" cy="256.3" rx="1.85" ry="2.84" transform="matrix(0.87, -0.5, 0.5, 0.87, -125.55, 44.05)"/><ellipse class="cls-11" cx="38.41" cy="257.43" rx="3.1" ry="4.26" transform="translate(-191.98 136.33) rotate(-53.78)"/><path class="cls-13" d="M34.28,251.82c-1.39,0-2.51,1.5-2.51,3.35,0,.13,0,.26,0,.39h5c0-.13,0-.26,0-.39C36.79,253.32,35.67,251.82,34.28,251.82Z"/><circle class="cls-14" cx="35.32" cy="255.05" r="1.65"/><circle class="cls-15" cx="35.32" cy="255.05" r="1.22"/><path d="M34.36,258.51a4.46,4.46,0,1,1,4.46-4.46A4.46,4.46,0,0,1,34.36,258.51Zm0-8.17a3.71,3.71,0,1,0,3.71,3.71A3.72,3.72,0,0,0,34.36,250.34Z"/><circle cx="29.5" cy="253.14" r="1"/><circle cx="28.1" cy="254.22" r="0.75"/><circle cx="26.89" cy="255.31" r="0.75"/><circle cx="25.39" cy="256.06" r="0.75"/><circle cx="23.92" cy="255.56" r="0.75"/><ellipse class="cls-22" cx="24.1" cy="268.8" rx="1.22" ry="2.02" transform="translate(-220.74 155.27) rotate(-60)"/><ellipse class="cls-22" cx="28.95" cy="273.82" rx="1.81" ry="5.19" transform="translate(-176.42 90.41) rotate(-42.2)"/><ellipse class="cls-23" cx="24.36" cy="248.56" rx="20.65" ry="4.92"/><path class="cls-23" d="M9.4,249.05s-1.12-13.58,1.21-14.32,15-6.18,20.28-4.16,4.83,2.57,4.83,2.57,2.79,10.33,3,11.45S9.4,249.05,9.4,249.05Z"/><path class="cls-24" d="M9.21,246.26V249s8.75,1.67,16,.65c2.77-.39,12.93-3.79,13.49-4.54s-.7-3.37-.7-3.37-8.61,4.58-13.44,5C19.54,247.19,9.68,247.19,9.21,246.26Z"/><path class="cls-3" d="M12.51,317.21c0,.56-2.81,6-3.14,7.54-.25,1.21-1.6,3.42,2.1,4.05s20.72.27,20.72.27a4.89,4.89,0,0,0,1.39-3.21c.1-2.16.07-3.9-3-4.53s-5.65-.14-6.34-1.12-1.68-2.58-1.68-2.58Z"/><path class="cls-23" d="M10.48,316.86c.78.7,13.17,3.63,13.88,2.24s8.28-23.1,6.76-26.86-11.69-1.84-11.69-1.84v12Z"/><path class="cls-6" d="M12.28,264a58.82,58.82,0,0,1-4.84,4.74A6.69,6.69,0,0,0,5,273.24a7.92,7.92,0,0,0,2.88,6.42,43,43,0,0,1,5.4,6.51s-6.24,7.44-6,9.21a3.56,3.56,0,0,0,2.51,3c1,.28,11.1,2.32,12.47,2.61s4.37.56,5.21,0,6.14-14.79,5.49-17-1-9.3-5.12-11.9S17.12,263.84,12.28,264Z"/><path class="cls-7" d="M12.37,270.68c-.06-.74,3.56-2.37,5.38-1.61s5.86,5.31,5.09,7.12-4.74,8.23-4.74,8.23,5.73,2.93,5.69,3.84-1.37,4-3.39,4-13.47-5.65-13.26-8.58S12.44,271.52,12.37,270.68Z"/><path class="cls-8" d="M8.47,267.61c0-.7.8-3.49,2-3.84,2.86-.81,14.07,3.61,18.86,9.51a15.56,15.56,0,0,1,3.73,11.17c0,2.09-3.59,15.65-5.54,16.51a5.25,5.25,0,0,1-3.58.25c-.14-.56,1.18-2.83,2.16-4.93a82.41,82.41,0,0,0,3.49-7.81c.51-1.94,1.3-3.42,1.11-5.09a9.39,9.39,0,0,0-3.14-5.86c-3.79-3.42-13.32-2.66-14.79-3.49-1.3-.75,5.45-6,5.45-6Z"/><rect class="cls-9" x="21.71" y="286.84" width="2.11" height="7.12" transform="translate(174.51 41.76) rotate(35.88)"/><path class="cls-18" d="M38.38,250.22a4,4,0,0,0-3.9-1.86c-2,.28-6.23,1.77-7.54,3.17s3.26-2.64,5.72-1.6,1.54,1.13,3,1.32A3.64,3.64,0,0,0,38.38,250.22Z"/><path class="cls-21" d="M122.41,251.49h15.21a14.38,14.38,0,0,0-1.4,3.42,18.3,18.3,0,0,0,0,2.09l-1.53.28s-5.75,6.14-6,6.35-4-.42-4-.42,1-2.23.84-2.65-2.22-3.77-2.58-5.58A15.22,15.22,0,0,1,122.41,251.49Z"/><path class="cls-11" d="M150.85,256.57c-.13-.52-.27-1-.43-1.54.25-.58.13-2.2.34-2.92.28-.93.7-4.48.7-4.48l-8.67-2.83h0a4.35,4.35,0,0,0-2.49-.16c-3.38.82-5.13,6-4.43,12.13l-2.92-.5-1.19,3.5-3.09,3.85-4-.42-.35,1.68,9.86,4.13,1.56-2.06s6.64,5.2,8.4,4.75h0A3.81,3.81,0,0,0,147,272C148.71,271.35,152.7,264.13,150.85,256.57Z"/><path d="M143,264a5.55,5.55,0,0,0,4.75-.83c.83-.84.73-1.47,2.79-1.54a1.88,1.88,0,0,1,2,2.6c-.48,1-2,1.93-4,2.29C145.49,267.11,143,264,143,264Z"/><ellipse class="cls-11" cx="131.35" cy="257.2" rx="1.85" ry="2.84" transform="matrix(0.87, -0.5, 0.5, 0.87, -111, 100.13)"/><ellipse class="cls-11" cx="150.33" cy="258.33" rx="3.1" ry="4.26" transform="translate(-146.91 226.99) rotate(-53.78)"/><path class="cls-13" d="M146.2,252.72c-1.39,0-2.51,1.5-2.51,3.35,0,.13,0,.26,0,.39h5c0-.13,0-.26,0-.39C148.71,254.22,147.59,252.72,146.2,252.72Z"/><circle class="cls-14" cx="147.24" cy="255.95" r="1.65"/><circle class="cls-15" cx="147.24" cy="255.95" r="1.22"/><path d="M146.28,259.41a4.46,4.46,0,1,1,4.46-4.46A4.46,4.46,0,0,1,146.28,259.41Zm0-8.17A3.71,3.71,0,1,0,150,255,3.72,3.72,0,0,0,146.28,251.24Z"/><circle cx="141.41" cy="254.04" r="1"/><circle cx="140.02" cy="255.12" r="0.75"/><circle cx="138.81" cy="256.21" r="0.75"/><circle cx="137.31" cy="256.96" r="0.75"/><circle cx="135.83" cy="256.46" r="0.75"/><ellipse class="cls-22" cx="136.02" cy="269.71" rx="1.22" ry="2.02" transform="translate(-165.56 252.65) rotate(-60)"/><ellipse class="cls-22" cx="140.87" cy="274.72" rx="1.81" ry="5.19" transform="translate(-148.02 165.82) rotate(-42.2)"/><ellipse class="cls-23" cx="136.28" cy="249.46" rx="20.65" ry="4.92"/><path class="cls-23" d="M121.32,250s-1.12-13.58,1.21-14.32,15-6.17,20.28-4.16,4.83,2.58,4.83,2.58,2.79,10.32,3,11.44S121.32,250,121.32,250Z"/><path class="cls-24" d="M121.13,247.16v2.7s8.75,1.67,16,.65c2.77-.39,12.93-3.79,13.49-4.53s-.7-3.38-.7-3.38-8.61,4.58-13.44,5C131.46,248.09,121.6,248.09,121.13,247.16Z"/><path class="cls-3" d="M124.43,318.11c0,.56-2.81,6-3.14,7.54-.25,1.21-1.6,3.42,2.1,4.05s20.72.28,20.72.28a4.89,4.89,0,0,0,1.39-3.21c.1-2.17.07-3.91-3-4.54s-5.65-.14-6.35-1.12-1.67-2.58-1.67-2.58Z"/><path class="cls-23" d="M122.4,317.77c.78.69,13.17,3.62,13.88,2.23s8.28-23.09,6.76-26.86-11.69-1.84-11.69-1.84v11.95Z"/><path class="cls-6" d="M124.2,264.93a58.82,58.82,0,0,1-4.84,4.74,6.69,6.69,0,0,0-2.41,4.47,7.89,7.89,0,0,0,2.88,6.42,42.65,42.65,0,0,1,5.39,6.51s-6.23,7.44-6,9.21a3.53,3.53,0,0,0,2.51,3c1,.28,11.1,2.32,12.47,2.61s4.37.56,5.21,0,6.14-14.79,5.49-17-1-9.31-5.12-11.91S129,264.74,124.2,264.93Z"/><path class="cls-7" d="M124.29,271.58c-.06-.74,3.56-2.37,5.38-1.6s5.86,5.3,5.09,7.11-4.75,8.23-4.75,8.23,5.74,2.93,5.7,3.84-1.37,4-3.39,4-13.47-5.65-13.26-8.58S124.36,272.42,124.29,271.58Z"/><path class="cls-8" d="M120.39,268.51c0-.7.8-3.49,2-3.84,2.86-.81,14.07,3.61,18.86,9.51A15.61,15.61,0,0,1,145,285.35c0,2.09-3.59,15.65-5.54,16.51a5.25,5.25,0,0,1-3.58.25c-.14-.56,1.18-2.83,2.16-4.93a85,85,0,0,0,3.49-7.81c.51-1.94,1.3-3.42,1.11-5.09a9.39,9.39,0,0,0-3.14-5.86c-3.79-3.42-13.32-2.65-14.79-3.49-1.31-.75,5.45-6,5.45-6Z"/><rect class="cls-9" x="133.62" y="287.74" width="2.11" height="7.12" transform="translate(196.28 -23.66) rotate(35.88)"/><path class="cls-18" d="M150.3,251.13a4.06,4.06,0,0,0-3.9-1.87c-2.05.28-6.24,1.77-7.54,3.17s3.26-2.64,5.72-1.6,1.54,1.13,3,1.32A3.67,3.67,0,0,0,150.3,251.13Z"/><path class="cls-21" d="M63.19,249.23H78.4A14.65,14.65,0,0,0,77,252.65a18.44,18.44,0,0,0,0,2.1l-1.54.28s-5.75,6.13-6,6.34-4-.41-4-.41,1-2.24.83-2.66-2.21-3.77-2.58-5.58A15.06,15.06,0,0,1,63.19,249.23Z"/><path class="cls-11" d="M91.64,254.32c-.13-.53-.28-1-.43-1.54.25-.58.12-2.2.34-2.92.28-.93.69-4.49.69-4.49l-8.67-2.82h0a4.39,4.39,0,0,0-2.5-.17c-3.38.83-5.12,6-4.43,12.13l-2.92-.5-1.19,3.51-3.09,3.84-4-.41-.35,1.68,9.86,4.13,1.55-2.07s6.64,5.21,8.41,4.75h0a3.86,3.86,0,0,0,2.89.32C89.5,269.09,93.49,261.88,91.64,254.32Z"/><path d="M83.77,261.79a5.51,5.51,0,0,0,4.74-.84c.84-.83.73-1.46,2.79-1.53a1.89,1.89,0,0,1,2.06,2.6c-.49,1-2,1.93-4,2.28C86.28,264.86,83.77,261.79,83.77,261.79Z"/><ellipse class="cls-11" cx="72.13" cy="254.95" rx="1.85" ry="2.84" transform="matrix(0.87, -0.5, 0.5, 0.87, -117.81, 70.22)"/><ellipse class="cls-11" cx="91.12" cy="256.08" rx="3.1" ry="4.26" transform="matrix(0.59, -0.81, 0.81, 0.59, -169.32, 178.3)"/><path class="cls-13" d="M87,250.47c-1.38,0-2.51,1.5-2.51,3.35,0,.13,0,.26,0,.38h5c0-.12,0-.25,0-.38C89.5,252,88.37,250.47,87,250.47Z"/><circle class="cls-14" cx="88.02" cy="253.7" r="1.65"/><circle class="cls-15" cx="88.02" cy="253.7" r="1.22"/><path d="M87.06,257.15a4.46,4.46,0,1,1,4.46-4.45A4.46,4.46,0,0,1,87.06,257.15Zm0-8.16a3.71,3.71,0,1,0,3.71,3.71A3.71,3.71,0,0,0,87.06,249Z"/><circle cx="82.2" cy="251.79" r="1"/><circle cx="80.8" cy="252.87" r="0.75"/><circle cx="79.6" cy="253.96" r="0.75"/><circle cx="78.1" cy="254.71" r="0.75"/><circle cx="76.62" cy="254.2" r="0.75"/><ellipse class="cls-22" cx="76.8" cy="267.45" rx="1.22" ry="2.02" transform="translate(-193.22 200.24) rotate(-60)"/><ellipse class="cls-22" cx="81.65" cy="272.47" rx="1.81" ry="5.19" transform="translate(-161.86 125.46) rotate(-42.2)"/><ellipse class="cls-23" cx="77.07" cy="247.2" rx="20.65" ry="4.92"/><path class="cls-23" d="M62.1,247.7S61,234.12,63.31,233.37s15-6.17,20.28-4.15,4.84,2.57,4.84,2.57,2.79,10.33,3,11.44S62.1,247.7,62.1,247.7Z"/><path class="cls-24" d="M61.91,244.91v2.7s8.75,1.67,16,.65c2.77-.39,12.94-3.79,13.49-4.54s-.7-3.37-.7-3.37-8.61,4.58-13.44,5C72.24,245.83,62.38,245.84,61.91,244.91Z"/><path class="cls-25" d="M65.22,315.86c0,.56-2.81,6-3.14,7.54-.26,1.21-1.61,3.42,2.09,4s20.72.28,20.72.28a4.92,4.92,0,0,0,1.4-3.21c.1-2.16.07-3.9-3-4.53s-5.65-.14-6.35-1.12-1.68-2.58-1.68-2.58Z"/><path class="cls-19" d="M63.19,315.51c.77.7,13.17,3.63,13.88,2.24s8.27-23.1,6.76-26.86-11.7-1.84-11.7-1.84V301Z"/><path class="cls-3" d="M81.25,319.94c.33.46,1.16,6.51,1.79,8,.49,1.13.66,3.71,4,2.09s17.09-11.73,17.09-11.73a4.88,4.88,0,0,0-.72-3.42c-1.16-1.83-2.19-3.24-5.06-2s-4.7,3.15-5.83,2.76-2.86-1.15-2.86-1.15Z"/><path class="cls-23" d="M79.39,320.83c1,.12,12.85-4.64,12.63-6.19S85.45,291,82,288.8s-10.61,5.25-10.61,5.25l6.9,9.76Z"/><path class="cls-6" d="M65,262.68a59.92,59.92,0,0,1-4.83,4.74,6.67,6.67,0,0,0-2.42,4.47,7.89,7.89,0,0,0,2.88,6.41,43.37,43.37,0,0,1,5.4,6.52s-6.24,7.44-6,9.2a3.55,3.55,0,0,0,2.52,3c1,.28,11.09,2.32,12.46,2.61s4.37.55,5.21,0,6.14-14.79,5.49-17-1-9.3-5.12-11.9S69.82,262.49,65,262.68Z"/><path class="cls-7" d="M65.08,269.33c-.06-.74,3.56-2.37,5.37-1.61s5.86,5.3,5.09,7.12-4.74,8.23-4.74,8.23,5.73,2.93,5.69,3.84-1.37,4-3.39,4-13.46-5.66-13.26-8.59S65.15,270.16,65.08,269.33Z"/><path class="cls-8" d="M61.17,266.26c0-.7.8-3.49,2-3.84,2.86-.81,14.07,3.6,18.86,9.51a15.54,15.54,0,0,1,3.73,11.16c0,2.1-3.59,15.66-5.54,16.52a5.28,5.28,0,0,1-3.58.24c-.14-.55,1.18-2.83,2.16-4.92a82.41,82.41,0,0,0,3.49-7.81c.52-1.95,1.3-3.42,1.12-5.1a9.5,9.5,0,0,0-3.14-5.86c-3.8-3.41-13.33-2.65-14.79-3.48s5.45-6,5.45-6Z"/><rect class="cls-9" x="74.41" y="285.49" width="2.11" height="7.12" transform="translate(183.72 10.62) rotate(35.88)"/><path class="cls-18" d="M91.09,248.87A4.06,4.06,0,0,0,87.18,247c-2.05.28-6.23,1.77-7.53,3.16s3.25-2.63,5.72-1.59,1.53,1.13,3,1.32A3.67,3.67,0,0,0,91.09,248.87Z"/><path class="cls-21" d="M175.11,250.59h15.21a14.53,14.53,0,0,0-1.39,3.41,18.44,18.44,0,0,0,0,2.1l-1.54.28s-5.75,6.14-6,6.35a24,24,0,0,1-4-.42s1-2.24.83-2.65-2.22-3.77-2.58-5.59A15,15,0,0,1,175.11,250.59Z"/><path class="cls-11" d="M203.56,255.67c-.13-.53-.28-1-.43-1.54.24-.58.12-2.2.34-2.92.27-.93.69-4.48.69-4.48l-8.67-2.83h0a4.48,4.48,0,0,0-2.5-.17c-3.38.83-5.12,6-4.43,12.14l-2.92-.5-1.19,3.5-3.09,3.85-4-.42L177,264l9.86,4.13,1.55-2.06s6.64,5.2,8.41,4.75h0a3.86,3.86,0,0,0,2.89.32C201.41,270.45,205.41,263.23,203.56,255.67Z"/><path d="M195.68,263.14a5.55,5.55,0,0,0,4.75-.83c.84-.84.73-1.47,2.79-1.54a1.89,1.89,0,0,1,2.06,2.6c-.49,1-2.05,1.93-4,2.28C198.2,266.21,195.68,263.14,195.68,263.14Z"/><ellipse class="cls-11" cx="184.05" cy="256.3" rx="1.85" ry="2.84" transform="translate(-103.49 126.36) rotate(-30)"/><ellipse class="cls-11" cx="203.03" cy="257.43" rx="3.1" ry="4.26" transform="translate(-124.62 269.15) rotate(-53.78)"/><path class="cls-13" d="M198.9,251.82c-1.38,0-2.51,1.5-2.51,3.35,0,.13,0,.26,0,.39h5a2.56,2.56,0,0,0,0-.39C201.41,253.32,200.29,251.82,198.9,251.82Z"/><circle class="cls-14" cx="199.94" cy="255.05" r="1.65"/><circle class="cls-15" cx="199.94" cy="255.05" r="1.22"/><path d="M199,258.51a4.46,4.46,0,1,1,4.46-4.46A4.46,4.46,0,0,1,199,258.51Zm0-8.17a3.71,3.71,0,1,0,3.71,3.71A3.71,3.71,0,0,0,199,250.34Z"/><circle cx="194.12" cy="253.14" r="1"/><circle cx="192.72" cy="254.22" r="0.75"/><circle cx="191.52" cy="255.31" r="0.75"/><circle cx="190.02" cy="256.06" r="0.75"/><circle cx="188.54" cy="255.56" r="0.75"/><ellipse class="cls-22" cx="188.72" cy="268.8" rx="1.22" ry="2.02" transform="translate(-138.43 297.84) rotate(-60)"/><ellipse class="cls-22" cx="193.57" cy="273.82" rx="1.81" ry="5.19" transform="translate(-133.76 200.99) rotate(-42.2)"/><ellipse class="cls-23" cx="188.98" cy="248.56" rx="20.65" ry="4.92"/><path class="cls-23" d="M174,249.05s-1.12-13.58,1.21-14.32,15-6.18,20.28-4.16,4.84,2.57,4.84,2.57,2.79,10.33,3,11.45S174,249.05,174,249.05Z"/><path class="cls-24" d="M173.83,246.26V249s8.75,1.67,16,.65c2.77-.39,12.93-3.79,13.49-4.54s-.7-3.37-.7-3.37-8.61,4.58-13.44,5C184.16,247.19,174.3,247.19,173.83,246.26Z"/><path class="cls-25" d="M190.13,313.79c.19.52-.6,6.58-.37,8.15.18,1.23-.33,3.76,3.35,3.09s19.56-6.85,19.56-6.85a4.87,4.87,0,0,0,.21-3.49c-.64-2.07-1.27-3.7-4.37-3.23s-5.36,1.8-6.35,1.13-2.45-1.86-2.45-1.86Z"/><path class="cls-19" d="M189.85,317.93c1,.13,12.85-4.63,12.63-6.18s-6.57-23.64-10-25.84-10.61,5.25-10.61,5.25l6.9,9.76Z"/><path class="cls-3" d="M177.14,317.21c0,.56-2.82,6-3.14,7.54-.26,1.21-1.61,3.42,2.09,4.05s20.72.27,20.72.27a4.92,4.92,0,0,0,1.4-3.21c.1-2.16.07-3.9-3-4.53s-5.66-.14-6.35-1.12-1.68-2.58-1.68-2.58Z"/><path class="cls-23" d="M175.1,316.86c.78.7,13.17,3.63,13.88,2.24s8.28-23.1,6.76-26.86-11.69-1.84-11.69-1.84v12Z"/><path class="cls-6" d="M176.9,264a59.93,59.93,0,0,1-4.83,4.74,6.67,6.67,0,0,0-2.42,4.47,7.92,7.92,0,0,0,2.88,6.42,43,43,0,0,1,5.4,6.51s-6.24,7.44-6,9.21a3.56,3.56,0,0,0,2.51,3c1,.28,11.1,2.32,12.47,2.61s4.37.56,5.21,0,6.14-14.79,5.49-17-1-9.3-5.12-11.9S181.74,263.84,176.9,264Z"/><path class="cls-7" d="M177,270.68c-.07-.74,3.55-2.37,5.37-1.61s5.86,5.31,5.09,7.12-4.74,8.23-4.74,8.23,5.73,2.93,5.69,3.84-1.37,4-3.39,4-13.47-5.65-13.26-8.58S177.07,271.52,177,270.68Z"/><path class="cls-8" d="M173.09,267.61c0-.7.8-3.49,2-3.84,2.86-.81,14.07,3.61,18.86,9.51a15.56,15.56,0,0,1,3.73,11.17c0,2.09-3.59,15.65-5.54,16.51a5.25,5.25,0,0,1-3.58.25c-.14-.56,1.18-2.83,2.16-4.93a82.41,82.41,0,0,0,3.49-7.81c.52-1.94,1.3-3.42,1.12-5.09a9.44,9.44,0,0,0-3.14-5.86c-3.8-3.42-13.33-2.66-14.8-3.49-1.3-.75,5.45-6,5.45-6Z"/><rect class="cls-9" x="186.33" y="286.84" width="2.11" height="7.12" transform="translate(205.75 -54.72) rotate(35.88)"/><path class="cls-18" d="M203,250.22a4.06,4.06,0,0,0-3.91-1.86c-2,.28-6.23,1.77-7.54,3.17s3.26-2.64,5.73-1.6,1.53,1.13,3,1.32A3.67,3.67,0,0,0,203,250.22Z"/></g></svg>